<svg width="49" height="14" viewBox="0 0 49 14" fill="none" xmlns="http://www.w3.org/2000/svg">
<path d="M7.97242 6.79342C7.97242 5.41637 9.09127 4.72785 9.17734 4.68482C8.53185 3.7381 7.49906 3.609 7.1548 3.609C6.29414 3.52294 5.47652 4.12539 5.04619 4.12539C4.61587 4.12539 3.92734 3.609 3.23882 3.65203C2.33513 3.65203 1.47448 4.21146 1.00112 5.02908C0.0113668 6.70736 0.742923 9.20325 1.68964 10.5803C2.163 11.2688 2.72243 12.0004 3.41095 11.9573C4.09948 11.9143 4.35767 11.527 5.21833 11.527C6.03595 11.527 6.29414 11.9573 7.0257 11.9573C7.75726 11.9573 8.23062 11.2688 8.70398 10.6233C9.2634 9.84875 9.47856 9.11719 9.47856 9.07416C9.43553 8.98809 8.01545 8.42866 7.97242 6.79342Z" fill="#0267FF"/>
<path d="M6.59541 2.70575C6.98271 2.23239 7.2409 1.5869 7.15484 0.941406C6.59541 0.984439 5.94992 1.3287 5.51959 1.75903C5.17533 2.14632 4.8741 2.83485 4.96017 3.4373C5.60566 3.52337 6.20812 3.17911 6.59541 2.70575Z" fill="#0267FF"/>
<path d="M19.6405 11.7399H18.6675L18.1598 10.09H16.3407L15.8331 11.7399H14.9023L16.7215 6.11328H17.8214L19.6405 11.7399ZM18.0329 9.41309L17.5676 7.9324C17.5253 7.76318 17.4407 7.42474 17.2714 6.87477C17.2291 7.12861 17.1445 7.46705 17.0176 7.9324L16.5099 9.41309H18.0329Z" fill="#575A65"/>
<path d="M24.3361 9.6667C24.3361 10.3436 24.1669 10.8936 23.7861 11.3166C23.4477 11.655 23.0246 11.8666 22.5593 11.8666C22.0093 11.8666 21.6286 11.655 21.417 11.2743V13.4319H20.5286V9.03213C20.5286 8.60907 20.5286 8.14372 20.4863 7.67836H21.2901L21.3324 8.31294C21.6286 7.84758 22.0939 7.59375 22.6862 7.59375C23.1516 7.59375 23.5746 7.76297 23.8707 8.14372C24.1669 8.52446 24.3361 9.03213 24.3361 9.6667ZM23.4054 9.70901C23.4054 9.32826 23.3208 8.98982 23.1516 8.73599C22.94 8.48216 22.6862 8.35524 22.3478 8.35524C22.1362 8.35524 21.9247 8.43985 21.7555 8.56677C21.5863 8.73599 21.4593 8.90521 21.417 9.15904C21.3747 9.28596 21.3747 9.37057 21.3747 9.41287V10.0898C21.3747 10.3859 21.4593 10.6397 21.6286 10.8512C21.7978 11.0628 22.0516 11.1474 22.3478 11.1474C22.6862 11.1474 22.94 11.0205 23.1516 10.7666C23.3208 10.4705 23.4054 10.1321 23.4054 9.70901Z" fill="#575A65"/>
<path d="M28.9884 9.6667C28.9884 10.3436 28.8192 10.8936 28.4385 11.3166C28.1 11.655 27.677 11.8666 27.2116 11.8666C26.6617 11.8666 26.2809 11.655 26.0694 11.2743V13.4319H25.181V9.03213C25.181 8.60907 25.181 8.14372 25.1387 7.67836H25.9425L25.9848 8.31294C26.2809 7.84758 26.7463 7.59375 27.3385 7.59375C27.8039 7.59375 28.227 7.76297 28.5231 8.14372C28.8192 8.52446 28.9884 9.03213 28.9884 9.6667ZM28.0577 9.70901C28.0577 9.32826 27.9731 8.98982 27.8039 8.73599C27.5924 8.48216 27.3385 8.35524 27.0001 8.35524C26.7886 8.35524 26.577 8.43985 26.4078 8.56677C26.2386 8.73599 26.1117 8.90521 26.0694 9.15904C26.0271 9.28596 26.0271 9.37057 26.0271 9.41287V10.0898C26.0271 10.3859 26.1117 10.6397 26.2809 10.8512C26.4501 11.0628 26.704 11.1474 27.0001 11.1474C27.3385 11.1474 27.5924 11.0205 27.8039 10.7666C27.9731 10.4705 28.0577 10.1321 28.0577 9.70901Z" fill="#575A65"/>
<path d="M34.1936 10.1736C34.1936 10.639 34.0244 11.062 33.686 11.3582C33.3052 11.6966 32.7976 11.8658 32.163 11.8658C31.5707 11.8658 31.0631 11.7389 30.7246 11.5274L30.9361 10.7659C31.3169 11.0197 31.7822 11.1466 32.2476 11.1466C32.586 11.1466 32.8399 11.062 33.0514 10.9351C33.2206 10.7659 33.3475 10.5967 33.3475 10.3005C33.3475 10.089 33.2629 9.87747 33.0937 9.70825C32.9245 9.53903 32.6706 9.41211 32.3322 9.2852C31.3592 8.90445 30.8515 8.39679 30.8515 7.6776C30.8515 7.21224 31.0207 6.83149 31.3592 6.53536C31.6976 6.23922 32.163 6.1123 32.7553 6.1123C33.2629 6.1123 33.686 6.19691 34.0244 6.36614L33.7706 7.04302C33.4321 6.8738 33.0937 6.78919 32.713 6.78919C32.3745 6.78919 32.163 6.8738 31.9515 7.04302C31.7822 7.16993 31.7399 7.33916 31.7399 7.55068C31.7399 7.76221 31.8245 7.97373 31.9938 8.10065C32.163 8.22756 32.4168 8.39679 32.7976 8.5237C33.2629 8.73523 33.6437 8.94675 33.8552 9.20058C34.109 9.45442 34.1936 9.79286 34.1936 10.1736Z" fill="#575A65"/>
<path d="M37.1972 8.35432H36.2242V10.3427C36.2242 10.8503 36.3934 11.1042 36.7318 11.1042C36.901 11.1042 37.028 11.1042 37.1126 11.0618L37.1549 11.7387C36.9857 11.8233 36.7318 11.8233 36.4357 11.8233C36.0972 11.8233 35.8011 11.6964 35.5896 11.4849C35.3781 11.2734 35.2934 10.8926 35.2934 10.385V8.35432H34.7012V7.67743H35.2934V6.91594L36.1819 6.66211V7.67743H37.1549C37.1972 7.67743 37.1972 8.35432 37.1972 8.35432Z" fill="#575A65"/>
<path d="M41.6831 9.6667C41.6831 10.3013 41.5138 10.8089 41.1331 11.1897C40.7523 11.6127 40.2447 11.8243 39.6524 11.8243C39.0601 11.8243 38.5948 11.6127 38.214 11.232C37.8333 10.8512 37.6641 10.3436 37.6641 9.75131C37.6641 9.11674 37.8333 8.60907 38.214 8.18602C38.5948 7.80528 39.0601 7.59375 39.6947 7.59375C40.287 7.59375 40.7523 7.80528 41.1331 8.18602C41.5138 8.56677 41.6831 9.07443 41.6831 9.6667ZM40.7523 9.70901C40.7523 9.32826 40.6677 9.03213 40.4985 8.73599C40.3293 8.39755 40.0332 8.27063 39.6947 8.27063C39.314 8.27063 39.0601 8.43985 38.8486 8.73599C38.6794 8.98982 38.5948 9.32826 38.5948 9.70901C38.5948 10.0898 38.6794 10.3859 38.8486 10.682C39.0601 11.0205 39.314 11.1474 39.6524 11.1474C39.9909 11.1474 40.287 10.9782 40.4562 10.6397C40.6677 10.3859 40.7523 10.0898 40.7523 9.70901Z" fill="#575A65"/>
<path d="M44.6009 8.48216C44.5163 8.48216 44.4317 8.43985 44.3048 8.43985C43.9663 8.43985 43.7548 8.56677 43.5856 8.8206C43.4164 9.03213 43.3741 9.28596 43.3741 9.6244V11.7397H42.4857V8.94752C42.4857 8.48216 42.4857 8.05911 42.4434 7.67836H43.2472L43.2895 8.43985H43.3318C43.4164 8.18602 43.5856 7.9745 43.7971 7.80528C44.0087 7.67836 44.2202 7.59375 44.4317 7.59375C44.5163 7.59375 44.6009 7.59375 44.6432 7.59375C44.6009 7.63606 44.6009 8.48216 44.6009 8.48216Z" fill="#575A65"/>
<path d="M48.6617 9.53819C48.6617 9.70741 48.6617 9.83432 48.6194 9.96124H45.9118C45.9118 10.342 46.0388 10.6804 46.2926 10.892C46.5041 11.0612 46.8003 11.1881 47.181 11.1881C47.5617 11.1881 47.9425 11.1035 48.2809 10.9766L48.4079 11.6111C48.0271 11.7804 47.5618 11.865 47.0541 11.865C46.4195 11.865 45.9118 11.6958 45.5734 11.315C45.235 10.9343 45.0234 10.4689 45.0234 9.83432C45.0234 9.24205 45.1927 8.69208 45.5311 8.31134C45.8695 7.88828 46.3349 7.67676 46.9695 7.67676C47.5617 7.67676 47.9848 7.88828 48.2809 8.31134C48.5348 8.56517 48.6617 9.03052 48.6617 9.53819ZM47.7733 9.28436C47.7733 9.03052 47.731 8.77669 47.6041 8.60747C47.4348 8.35364 47.2233 8.22673 46.8849 8.22673C46.5887 8.22673 46.3349 8.35364 46.1657 8.60747C45.9965 8.819 45.9118 9.03052 45.9118 9.32666L47.7733 9.28436Z" fill="#575A65"/>
<path d="M17.1868 2.64447C17.1868 3.15213 17.0176 3.53288 16.7215 3.78671C16.4253 3.99824 16.0446 4.12515 15.5369 4.12515C15.2831 4.12515 15.0716 4.12515 14.9023 4.08285V1.37531C15.1562 1.33301 15.41 1.33301 15.6638 1.33301C16.1292 1.33301 16.5099 1.41762 16.7638 1.62914C17.0599 1.88298 17.1868 2.22142 17.1868 2.64447ZM16.7215 2.64447C16.7215 2.30603 16.6369 2.0945 16.4676 1.88298C16.2984 1.71375 16.0446 1.62914 15.7061 1.62914C15.5792 1.62914 15.4523 1.62914 15.3677 1.67145V3.7444C15.41 3.7444 15.5369 3.7444 15.6638 3.7444C16.0023 3.7444 16.2561 3.65979 16.4676 3.44827C16.6792 3.23674 16.7215 3.02522 16.7215 2.64447Z" fill="#575A65"/>
<path d="M19.6824 3.06708C19.6824 3.36322 19.5978 3.61705 19.4285 3.82858C19.2593 4.0401 19.0055 4.12471 18.7093 4.12471C18.4132 4.12471 18.2017 4.0401 17.9902 3.82858C17.8209 3.61705 17.7363 3.40552 17.7363 3.10939C17.7363 2.81325 17.8209 2.55942 17.9902 2.34789C18.1594 2.13637 18.4132 2.05176 18.7093 2.05176C19.0055 2.05176 19.217 2.13637 19.4285 2.34789C19.5978 2.55942 19.6824 2.77095 19.6824 3.06708ZM19.217 3.10939C19.217 2.94017 19.1747 2.77095 19.0901 2.64403C19.0055 2.47481 18.8786 2.3902 18.7093 2.3902C18.5401 2.3902 18.4132 2.47481 18.2863 2.64403C18.2017 2.77095 18.1594 2.94017 18.1594 3.10939C18.1594 3.27861 18.2017 3.44783 18.2863 3.57474C18.3709 3.74397 18.4978 3.82858 18.7093 3.82858C18.8786 3.82858 19.0055 3.74397 19.0901 3.57474C19.1747 3.44783 19.217 3.27861 19.217 3.10939Z" fill="#575A65"/>
<path d="M23.0226 2.09473L22.388 4.08307H21.9649L21.7111 3.23697C21.6265 3.02544 21.5842 2.81391 21.5419 2.60239C21.4996 2.81391 21.4573 3.02544 21.3727 3.23697L21.1188 4.08307H20.6958L20.1035 2.09473H20.5689L20.7804 3.02544C20.8227 3.23697 20.865 3.44849 20.9073 3.66002C20.9496 3.4908 20.9919 3.27927 21.0765 3.02544L21.3727 2.09473H21.7534L22.0072 3.02544C22.0919 3.23697 22.1342 3.4908 22.1765 3.70232C22.2188 3.4908 22.2611 3.27927 22.3034 3.02544L22.5572 2.09473H23.0226Z" fill="#575A65"/>
<path d="M25.3094 4.08272H24.8863V2.94048C24.8863 2.60204 24.7594 2.43282 24.5056 2.43282C24.3787 2.43282 24.2518 2.47512 24.1672 2.55973C24.0825 2.64434 24.0402 2.77126 24.0402 2.89818V4.08272H23.6172V2.64434C23.6172 2.47512 23.6172 2.2636 23.6172 2.09438H23.9556V2.39051C23.9979 2.3059 24.0825 2.22129 24.1672 2.13668C24.2941 2.05207 24.421 2.00977 24.5479 2.00977C24.7171 2.00977 24.8863 2.05207 25.0133 2.17899C25.1825 2.3059 25.2248 2.55973 25.2248 2.85587V4.08272H25.3094Z" fill="#575A65"/>
<path d="M26.5344 4.08281H26.1113V1.20605H26.5344V4.08281Z" fill="#575A65"/>
<path d="M29.1628 3.06708C29.1628 3.36322 29.0782 3.61705 28.909 3.82858C28.7398 4.0401 28.486 4.12471 28.1898 4.12471C27.8937 4.12471 27.6822 4.0401 27.4706 3.82858C27.3014 3.61705 27.2168 3.40552 27.2168 3.10939C27.2168 2.81325 27.3014 2.55942 27.4706 2.34789C27.6399 2.13637 27.8937 2.05176 28.1898 2.05176C28.486 2.05176 28.6975 2.13637 28.909 2.34789C29.0782 2.55942 29.1628 2.77095 29.1628 3.06708ZM28.6975 3.10939C28.6975 2.94017 28.6552 2.77095 28.5706 2.64403C28.486 2.47481 28.359 2.3902 28.1898 2.3902C28.0206 2.3902 27.8937 2.47481 27.7668 2.64403C27.6822 2.77095 27.6398 2.94017 27.6398 3.10939C27.6398 3.27861 27.6822 3.44783 27.7668 3.57474C27.8514 3.74397 27.9783 3.82858 28.1898 3.82858C28.359 3.82858 28.486 3.74397 28.5706 3.57474C28.6552 3.44783 28.6975 3.27861 28.6975 3.10939Z" fill="#575A65"/>
<path d="M31.2749 4.08241H30.8942L30.8519 3.87088C30.7249 4.0401 30.5134 4.12471 30.2596 4.12471C30.0904 4.12471 29.9211 4.08241 29.7942 3.95549C29.7096 3.82858 29.625 3.70166 29.625 3.53244C29.625 3.27861 29.7096 3.10939 29.9211 2.98247C30.1327 2.85556 30.4288 2.77095 30.7672 2.81325V2.77095C30.7672 2.51711 30.6403 2.3902 30.3442 2.3902C30.1327 2.3902 29.9634 2.4325 29.8365 2.51711L29.7942 2.22098C29.9634 2.09406 30.2173 2.05176 30.4711 2.05176C30.9788 2.05176 31.2326 2.30559 31.2326 2.85556V3.57474C31.2749 3.82858 31.2749 3.9978 31.2749 4.08241ZM30.8095 3.40552V3.10939C30.3019 3.10939 30.0904 3.2363 30.0904 3.49013C30.0904 3.57474 30.1327 3.65936 30.175 3.74397C30.2173 3.78627 30.3019 3.82858 30.3865 3.82858C30.4711 3.82858 30.5557 3.78627 30.6403 3.74397C30.7249 3.70166 30.7672 3.61705 30.8095 3.49013C30.8095 3.44783 30.8095 3.44783 30.8095 3.40552Z" fill="#575A65"/>
<path d="M33.8106 4.08281H33.4299V3.74437C33.303 3.9982 33.0915 4.12511 32.7953 4.12511C32.5415 4.12511 32.3723 4.0405 32.203 3.82898C32.0338 3.61745 31.9492 3.40593 31.9492 3.10979C31.9492 2.77135 32.0338 2.51752 32.203 2.30599C32.3723 2.13677 32.5838 2.00985 32.8376 2.00985C33.0915 2.00985 33.303 2.09446 33.3876 2.26368V1.20605H33.8106V3.57515C33.7683 3.74437 33.8106 3.91359 33.8106 4.08281ZM33.3453 3.2367V2.89826C33.3453 2.85596 33.3453 2.81365 33.3453 2.77135C33.303 2.64443 33.2607 2.55982 33.1761 2.51752C33.0915 2.43291 33.0068 2.3906 32.8799 2.3906C32.7107 2.3906 32.5838 2.47521 32.4992 2.60213C32.4146 2.72904 32.3723 2.89826 32.3723 3.10979C32.3723 3.32131 32.4146 3.44823 32.4992 3.57515C32.5838 3.70206 32.7107 3.78667 32.8799 3.78667C33.0068 3.78667 33.1338 3.74437 33.2184 3.61745C33.303 3.53284 33.3453 3.40592 33.3453 3.2367Z" fill="#575A65"/>
<path d="M37.5749 3.06708C37.5749 3.36322 37.4903 3.61705 37.3211 3.82858C37.1519 4.0401 36.8981 4.12471 36.6019 4.12471C36.3058 4.12471 36.0943 4.0401 35.8827 3.82858C35.7135 3.61705 35.6289 3.40552 35.6289 3.10939C35.6289 2.81325 35.7135 2.55942 35.8827 2.34789C36.052 2.13637 36.3058 2.05176 36.6019 2.05176C36.8981 2.05176 37.1096 2.13637 37.3211 2.34789C37.4903 2.55942 37.5749 2.77095 37.5749 3.06708ZM37.1519 3.10939C37.1519 2.94017 37.1096 2.77095 37.025 2.64403C36.9404 2.47481 36.8135 2.3902 36.6442 2.3902C36.475 2.3902 36.3481 2.47481 36.2212 2.64403C36.1366 2.77095 36.0943 2.94017 36.0943 3.10939C36.0943 3.27861 36.1366 3.44783 36.2212 3.57474C36.3058 3.74397 36.4327 3.82858 36.6442 3.82858C36.8135 3.82858 36.9404 3.74397 37.025 3.57474C37.1096 3.44783 37.1519 3.27861 37.1519 3.10939Z" fill="#575A65"/>
<path d="M39.9884 4.08272H39.5654V2.94048C39.5654 2.60204 39.4385 2.43282 39.1423 2.43282C39.0154 2.43282 38.8885 2.47512 38.8039 2.55973C38.7193 2.64434 38.677 2.77126 38.677 2.89818V4.08272H38.2539V2.64434C38.2539 2.47512 38.2539 2.2636 38.2539 2.09438H38.6347V2.39051C38.677 2.3059 38.7616 2.22129 38.8462 2.13668C38.9731 2.05207 39.1 2.00977 39.2692 2.00977C39.4384 2.00977 39.6077 2.05207 39.7346 2.17899C39.9038 2.3059 39.9461 2.55973 39.9461 2.85587V4.08272H39.9884Z" fill="#575A65"/>
<path d="M42.9495 2.43271H42.4418V3.40572C42.4418 3.65956 42.5265 3.78647 42.6957 3.78647C42.7803 3.78647 42.8226 3.78647 42.9072 3.78647V4.12491C42.8226 4.16722 42.6957 4.16722 42.5688 4.16722C42.3995 4.16722 42.2726 4.12491 42.1457 3.998C42.0611 3.87108 42.0188 3.70186 42.0188 3.44803V2.43271H41.7227V2.09426H42.0188V1.75582L42.4418 1.62891V2.13657H42.9495V2.43271Z" fill="#575A65"/>
<path d="M45.3218 4.08281H44.8987V2.94057C44.8987 2.60213 44.7718 2.3906 44.518 2.3906C44.3065 2.3906 44.1795 2.47521 44.0949 2.68674C44.0949 2.72904 44.0949 2.77135 44.0949 2.85596V4.0405H43.6719V1.20605H44.0949V2.3906C44.2218 2.17907 44.4334 2.05216 44.6872 2.05216C44.8564 2.05216 45.0256 2.09446 45.1526 2.22138C45.3218 2.3906 45.3641 2.60213 45.3641 2.89826C45.3218 2.89826 45.3218 4.08281 45.3218 4.08281Z" fill="#575A65"/>
<path d="M47.7345 3.02544C47.7345 3.11005 47.7345 3.15236 47.7345 3.23697H46.3807C46.3807 3.44849 46.4654 3.57541 46.5923 3.70232C46.7192 3.78693 46.8461 3.82924 47.0153 3.82924C47.2269 3.82924 47.3961 3.78693 47.5653 3.74463L47.6499 4.04077C47.4807 4.12538 47.2269 4.16768 46.973 4.16768C46.6769 4.16768 46.4231 4.08307 46.2538 3.91385C46.0846 3.74463 46 3.4908 46 3.19466C46 2.89853 46.0846 2.64469 46.2538 2.43317C46.4231 2.22164 46.6769 2.09473 46.9307 2.09473C47.2269 2.09473 47.4384 2.22164 47.5653 2.43317C47.6922 2.56008 47.7345 2.77161 47.7345 3.02544ZM47.3115 2.89853C47.3115 2.77161 47.2692 2.64469 47.2269 2.56008C47.1422 2.43317 47.0153 2.39086 46.8884 2.39086C46.7615 2.39086 46.6346 2.43317 46.55 2.56008C46.4654 2.64469 46.4231 2.77161 46.4231 2.89853C46.3807 2.89853 47.3115 2.89853 47.3115 2.89853Z" fill="#575A65"/>
</svg>
