<svg width="28" height="21" viewBox="0 0 28 21" fill="none" xmlns="http://www.w3.org/2000/svg">
<mask id="path-1-inside-1" fill="white">
<path d="M7.10239 8.63708H2.66553V9.52554H7.10239V8.63708Z"/>
</mask>
<path d="M7.10239 8.63708H2.66553V9.52554H7.10239V8.63708Z" fill="#CDCDCD"/>
<path d="M2.66553 8.63708V7.13708H1.16553V8.63708H2.66553ZM7.10239 8.63708H8.60239V7.13708H7.10239V8.63708ZM7.10239 9.52554V11.0255H8.60239V9.52554H7.10239ZM2.66553 9.52554H1.16553V11.0255H2.66553V9.52554ZM2.66553 10.1371H7.10239V7.13708H2.66553V10.1371ZM5.60239 8.63708V9.52554H8.60239V8.63708H5.60239ZM7.10239 8.02554H2.66553V11.0255H7.10239V8.02554ZM4.16553 9.52554V8.63708H1.16553V9.52554H4.16553Z" fill="#CDCDCD" mask="url(#path-1-inside-1)"/>
<mask id="path-3-inside-2" fill="white">
<path d="M9.32353 11.3025H2.66553V12.191H9.32353V11.3025Z"/>
</mask>
<path d="M9.32353 11.3025H2.66553V12.191H9.32353V11.3025Z" fill="#CDCDCD"/>
<path d="M2.66553 11.3025V9.80252H1.16553V11.3025H2.66553ZM9.32353 11.3025H10.8235V9.80252H9.32353V11.3025ZM9.32353 12.191V13.691H10.8235V12.191H9.32353ZM2.66553 12.191H1.16553V13.691H2.66553V12.191ZM2.66553 12.8025H9.32353V9.80252H2.66553V12.8025ZM7.82353 11.3025V12.191H10.8235V11.3025H7.82353ZM9.32353 10.691H2.66553V13.691H9.32353V10.691ZM4.16553 12.191V11.3025H1.16553V12.191H4.16553Z" fill="#CDCDCD" mask="url(#path-3-inside-2)"/>
<mask id="path-5-inside-3" fill="white">
<path d="M18.6469 13.9679H2.66553V14.8563H18.6469V13.9679Z"/>
</mask>
<path d="M18.6469 13.9679H2.66553V14.8563H18.6469V13.9679Z" fill="#CDCDCD"/>
<path d="M2.66553 13.9679V12.4679H1.16553V13.9679H2.66553ZM18.6469 13.9679H20.1469V12.4679H18.6469V13.9679ZM18.6469 14.8563V16.3563H20.1469V14.8563H18.6469ZM2.66553 14.8563H1.16553V16.3563H2.66553V14.8563ZM2.66553 15.4679H18.6469V12.4679H2.66553V15.4679ZM17.1469 13.9679V14.8563H20.1469V13.9679H17.1469ZM18.6469 13.3563H2.66553V16.3563H18.6469V13.3563ZM4.16553 14.8563V13.9679H1.16553V14.8563H4.16553Z" fill="#CDCDCD" mask="url(#path-5-inside-3)"/>
<mask id="path-7-inside-4" fill="white">
<path d="M5.33089 16.6278H2.66553V17.5162H5.33089V16.6278Z"/>
</mask>
<path d="M5.33089 16.6278H2.66553V17.5162H5.33089V16.6278Z" fill="#CDCDCD"/>
<path d="M2.66553 16.6278V15.1278H1.16553V16.6278H2.66553ZM5.33089 16.6278H6.83089V15.1278H5.33089V16.6278ZM5.33089 17.5162V19.0162H6.83089V17.5162H5.33089ZM2.66553 17.5162H1.16553V19.0162H2.66553V17.5162ZM2.66553 18.1278H5.33089V15.1278H2.66553V18.1278ZM3.83089 16.6278V17.5162H6.83089V16.6278H3.83089ZM5.33089 16.0162H2.66553V19.0162H5.33089V16.0162ZM4.16553 17.5162V16.6278H1.16553V17.5162H4.16553Z" fill="#CDCDCD" mask="url(#path-7-inside-4)"/>
<mask id="path-9-inside-5" fill="white">
<path d="M9.76742 16.6278H7.10205V17.5162H9.76742V16.6278Z"/>
</mask>
<path d="M9.76742 16.6278H7.10205V17.5162H9.76742V16.6278Z" fill="#CDCDCD"/>
<path d="M7.10205 16.6278V15.1278H5.60205V16.6278H7.10205ZM9.76742 16.6278H11.2674V15.1278H9.76742V16.6278ZM9.76742 17.5162V19.0162H11.2674V17.5162H9.76742ZM7.10205 17.5162H5.60205V19.0162H7.10205V17.5162ZM7.10205 18.1278H9.76742V15.1278H7.10205V18.1278ZM8.26742 16.6278V17.5162H11.2674V16.6278H8.26742ZM9.76742 16.0162H7.10205V19.0162H9.76742V16.0162ZM8.60205 17.5162V16.6278H5.60205V17.5162H8.60205Z" fill="#CDCDCD" mask="url(#path-9-inside-5)"/>
<mask id="path-11-inside-6" fill="white">
<path d="M14.2098 16.6278H11.5444V17.5162H14.2098V16.6278Z"/>
</mask>
<path d="M14.2098 16.6278H11.5444V17.5162H14.2098V16.6278Z" fill="#CDCDCD"/>
<path d="M11.5444 16.6278V15.1278H10.0444V16.6278H11.5444ZM14.2098 16.6278H15.7098V15.1278H14.2098V16.6278ZM14.2098 17.5162V19.0162H15.7098V17.5162H14.2098ZM11.5444 17.5162H10.0444V19.0162H11.5444V17.5162ZM11.5444 18.1278H14.2098V15.1278H11.5444V18.1278ZM12.7098 16.6278V17.5162H15.7098V16.6278H12.7098ZM14.2098 16.0162H11.5444V19.0162H14.2098V16.0162ZM13.0444 17.5162V16.6278H10.0444V17.5162H13.0444Z" fill="#CDCDCD" mask="url(#path-11-inside-6)"/>
<mask id="path-13-inside-7" fill="white">
<path d="M18.2023 8.19299C17.8772 8.19299 17.5793 8.28509 17.3192 8.43678C17.0484 8.27967 16.745 8.19299 16.4253 8.19299C15.4448 8.19299 14.6484 8.98935 14.6484 9.9699C14.6484 10.9505 15.4448 11.7468 16.4253 11.7468C16.745 11.7468 17.0484 11.6601 17.3192 11.503C17.5793 11.6547 17.8772 11.7468 18.2023 11.7468C19.1828 11.7468 19.9792 10.9505 19.9792 9.9699C19.9792 8.98935 19.1828 8.19299 18.2023 8.19299ZM16.6529 10.8259C16.577 10.8475 16.5012 10.8584 16.4253 10.8584C15.9378 10.8584 15.5369 10.4575 15.5369 9.9699C15.5369 9.48234 15.9378 9.08145 16.4253 9.08145C16.5012 9.08145 16.5825 9.0977 16.6529 9.11395C16.512 9.36857 16.4253 9.65569 16.4253 9.9699C16.4253 10.2841 16.512 10.5712 16.6529 10.8259ZM18.2023 10.8584C17.7147 10.8584 17.3138 10.4575 17.3138 9.9699C17.3138 9.48234 17.7147 9.08145 18.2023 9.08145C18.6898 9.08145 19.0907 9.48234 19.0907 9.9699C19.0907 10.4575 18.6898 10.8584 18.2023 10.8584Z"/>
</mask>
<path d="M18.2023 8.19299C17.8772 8.19299 17.5793 8.28509 17.3192 8.43678C17.0484 8.27967 16.745 8.19299 16.4253 8.19299C15.4448 8.19299 14.6484 8.98935 14.6484 9.9699C14.6484 10.9505 15.4448 11.7468 16.4253 11.7468C16.745 11.7468 17.0484 11.6601 17.3192 11.503C17.5793 11.6547 17.8772 11.7468 18.2023 11.7468C19.1828 11.7468 19.9792 10.9505 19.9792 9.9699C19.9792 8.98935 19.1828 8.19299 18.2023 8.19299ZM16.6529 10.8259C16.577 10.8475 16.5012 10.8584 16.4253 10.8584C15.9378 10.8584 15.5369 10.4575 15.5369 9.9699C15.5369 9.48234 15.9378 9.08145 16.4253 9.08145C16.5012 9.08145 16.5825 9.0977 16.6529 9.11395C16.512 9.36857 16.4253 9.65569 16.4253 9.9699C16.4253 10.2841 16.512 10.5712 16.6529 10.8259ZM18.2023 10.8584C17.7147 10.8584 17.3138 10.4575 17.3138 9.9699C17.3138 9.48234 17.7147 9.08145 18.2023 9.08145C18.6898 9.08145 19.0907 9.48234 19.0907 9.9699C19.0907 10.4575 18.6898 10.8584 18.2023 10.8584Z" fill="#CDCDCD"/>
<path d="M17.3192 8.43678L16.5666 9.73432L17.3214 10.1721L18.075 9.73245L17.3192 8.43678ZM17.3192 11.503L18.075 10.2074L17.3214 9.76774L16.5666 10.2055L17.3192 11.503ZM16.6529 10.8259L17.065 12.2681L18.8783 11.75L17.9654 10.0998L16.6529 10.8259ZM16.6529 9.11395L17.9654 9.84005L18.9282 8.09961L16.9902 7.65237L16.6529 9.11395ZM18.2023 6.69299C17.5852 6.69299 17.0289 6.86955 16.5634 7.14111L18.075 9.73245C18.1037 9.71571 18.1277 9.70619 18.1467 9.70079C18.165 9.69557 18.1828 9.69299 18.2023 9.69299V6.69299ZM18.0718 7.13923C17.5841 6.85637 17.0226 6.69299 16.4253 6.69299V9.69299C16.4673 9.69299 16.5126 9.70297 16.5666 9.73432L18.0718 7.13923ZM16.4253 6.69299C14.6164 6.69299 13.1484 8.16093 13.1484 9.9699H16.1484C16.1484 9.81778 16.2732 9.69299 16.4253 9.69299V6.69299ZM13.1484 9.9699C13.1484 11.7789 14.6164 13.2468 16.4253 13.2468V10.2468C16.2732 10.2468 16.1484 10.122 16.1484 9.9699H13.1484ZM16.4253 13.2468C17.0226 13.2468 17.5841 13.0834 18.0718 12.8006L16.5666 10.2055C16.5126 10.2368 16.4673 10.2468 16.4253 10.2468V13.2468ZM16.5634 12.7987C17.0289 13.0703 17.5852 13.2468 18.2023 13.2468V10.2468C18.1828 10.2468 18.165 10.2442 18.1467 10.239C18.1277 10.2336 18.1037 10.2241 18.075 10.2074L16.5634 12.7987ZM18.2023 13.2468C20.0112 13.2468 21.4792 11.7789 21.4792 9.9699H18.4792C18.4792 10.122 18.3544 10.2468 18.2023 10.2468V13.2468ZM21.4792 9.9699C21.4792 8.16093 20.0112 6.69299 18.2023 6.69299V9.69299C18.3544 9.69299 18.4792 9.81778 18.4792 9.9699H21.4792ZM16.2408 9.38357C16.2936 9.36849 16.3563 9.35836 16.4253 9.35836V12.3584C16.6461 12.3584 16.8605 12.3266 17.065 12.2681L16.2408 9.38357ZM16.4253 9.35836C16.7662 9.35836 17.0369 9.62904 17.0369 9.9699H14.0369C14.0369 11.2859 15.1094 12.3584 16.4253 12.3584V9.35836ZM17.0369 9.9699C17.0369 10.3108 16.7662 10.5814 16.4253 10.5814V7.58145C15.1094 7.58145 14.0369 8.65391 14.0369 9.9699H17.0369ZM16.4253 10.5814C16.3914 10.5814 16.3644 10.5797 16.346 10.578C16.3275 10.5763 16.3141 10.5743 16.3072 10.5733C16.2954 10.5714 16.2944 10.5706 16.3156 10.5755L16.9902 7.65237C16.9099 7.63384 16.6852 7.58145 16.4253 7.58145V10.5814ZM15.3403 8.38786C15.0926 8.83567 14.9253 9.37043 14.9253 9.9699H17.9253C17.9253 9.95224 17.9276 9.93554 17.9326 9.91715C17.9379 9.89801 17.9476 9.87234 17.9654 9.84005L15.3403 8.38786ZM14.9253 9.9699C14.9253 10.5694 15.0926 11.1041 15.3403 11.5519L17.9654 10.0998C17.9476 10.0675 17.9379 10.0418 17.9326 10.0227C17.9276 10.0043 17.9253 9.98757 17.9253 9.9699H14.9253ZM18.2023 9.35836C18.5431 9.35836 18.8138 9.62905 18.8138 9.9699H15.8138C15.8138 11.2859 16.8863 12.3584 18.2023 12.3584V9.35836ZM18.8138 9.9699C18.8138 10.3108 18.5431 10.5814 18.2023 10.5814V7.58145C16.8863 7.58145 15.8138 8.65391 15.8138 9.9699H18.8138ZM18.2023 10.5814C17.8614 10.5814 17.5907 10.3108 17.5907 9.9699H20.5907C20.5907 8.65391 19.5183 7.58145 18.2023 7.58145V10.5814ZM17.5907 9.9699C17.5907 9.62905 17.8614 9.35836 18.2023 9.35836V12.3584C19.5183 12.3584 20.5907 11.2859 20.5907 9.9699H17.5907Z" fill="#CDCDCD" mask="url(#path-13-inside-7)"/>
<mask id="path-15-inside-8" fill="white">
<path d="M26.594 6.13971L7.969 0.256396C7.83898 0.213057 6.79884 -0.12824 6.30044 1.12318L4.76732 5.97177H1.33268C0.595914 5.97718 0 6.5731 0 7.30445V18.849C0 19.5857 0.595914 20.1816 1.33268 20.1816H20.8678C21.3337 20.1816 21.74 19.9433 21.9784 19.5803C21.9784 19.5803 22.5797 19.7482 22.7152 19.7482C23.3003 19.7482 23.8095 19.3744 23.9828 18.8165L27.4608 7.80827C27.5692 7.47239 27.645 6.42141 26.594 6.13971ZM6.60923 3.08429L15.7592 5.97177H9.85968L6.07291 4.77452L6.60923 3.08429ZM5.80746 5.62505L6.91803 5.97718H5.69911L5.80746 5.62505ZM21.3121 18.849H21.3067C21.3067 19.0927 21.1062 19.2932 20.8624 19.2932H1.33268C1.0889 19.2932 0.888454 19.0927 0.888454 18.849V7.30445C0.888454 7.06067 1.0889 6.86022 1.33268 6.86022H20.8678C21.1116 6.86022 21.3121 7.06067 21.3121 7.30445V18.849ZM23.1377 18.551C23.0673 18.7785 22.8073 18.914 22.5797 18.8381L22.1951 18.7189V10.8041L25.2776 11.7792L23.1377 18.551ZM25.5431 10.9287L22.1951 9.8723V8.00871L26.0794 9.23305L25.5431 10.9287ZM26.6157 7.54282L26.3503 8.38793L22.1734 7.0715C22.0597 6.4485 21.5179 5.97718 20.8678 5.97718H18.7063L6.87469 2.23917L7.14014 1.39405C7.21057 1.16652 7.46518 1.03109 7.69813 1.10693L26.3232 6.98482C26.697 7.08234 26.6482 7.42905 26.6157 7.54282Z"/>
</mask>
<path d="M26.594 6.13971L7.969 0.256396C7.83898 0.213057 6.79884 -0.12824 6.30044 1.12318L4.76732 5.97177H1.33268C0.595914 5.97718 0 6.5731 0 7.30445V18.849C0 19.5857 0.595914 20.1816 1.33268 20.1816H20.8678C21.3337 20.1816 21.74 19.9433 21.9784 19.5803C21.9784 19.5803 22.5797 19.7482 22.7152 19.7482C23.3003 19.7482 23.8095 19.3744 23.9828 18.8165L27.4608 7.80827C27.5692 7.47239 27.645 6.42141 26.594 6.13971ZM6.60923 3.08429L15.7592 5.97177H9.85968L6.07291 4.77452L6.60923 3.08429ZM5.80746 5.62505L6.91803 5.97718H5.69911L5.80746 5.62505ZM21.3121 18.849H21.3067C21.3067 19.0927 21.1062 19.2932 20.8624 19.2932H1.33268C1.0889 19.2932 0.888454 19.0927 0.888454 18.849V7.30445C0.888454 7.06067 1.0889 6.86022 1.33268 6.86022H20.8678C21.1116 6.86022 21.3121 7.06067 21.3121 7.30445V18.849ZM23.1377 18.551C23.0673 18.7785 22.8073 18.914 22.5797 18.8381L22.1951 18.7189V10.8041L25.2776 11.7792L23.1377 18.551ZM25.5431 10.9287L22.1951 9.8723V8.00871L26.0794 9.23305L25.5431 10.9287ZM26.6157 7.54282L26.3503 8.38793L22.1734 7.0715C22.0597 6.4485 21.5179 5.97718 20.8678 5.97718H18.7063L6.87469 2.23917L7.14014 1.39405C7.21057 1.16652 7.46518 1.03109 7.69813 1.10693L26.3232 6.98482C26.697 7.08234 26.6482 7.42905 26.6157 7.54282Z" fill="#CDCDCD"/>
<path d="M26.594 6.13971L26.1422 7.57004L26.1737 7.58L26.2057 7.58856L26.594 6.13971ZM7.969 0.256396L7.49466 1.67942L7.50589 1.68317L7.51718 1.68673L7.969 0.256396ZM6.30044 1.12318L4.9069 0.568178L4.8867 0.618897L4.87024 0.67095L6.30044 1.12318ZM4.76732 5.97177V7.47177H5.86622L6.19752 6.424L4.76732 5.97177ZM1.33268 5.97177V4.47173L1.32165 4.47181L1.33268 5.97177ZM21.9784 19.5803L22.3819 18.1356L21.3263 17.8408L20.7246 18.7569L21.9784 19.5803ZM23.9828 18.8165L22.5525 18.3645L22.5504 18.3714L23.9828 18.8165ZM27.4608 7.80827L26.0332 7.34776L26.0305 7.35637L27.4608 7.80827ZM6.60923 3.08429L7.06065 1.65382L5.63244 1.20312L5.17948 2.63062L6.60923 3.08429ZM15.7592 5.97177V7.47177L16.2106 4.5413L15.7592 5.97177ZM9.85968 5.97177L9.40749 7.40199L9.6282 7.47177H9.85968V5.97177ZM6.07291 4.77452L4.64316 4.32085L4.18902 5.75208L5.62072 6.20474L6.07291 4.77452ZM5.80746 5.62505L6.26082 4.19521L4.8187 3.73795L4.37379 5.18392L5.80746 5.62505ZM6.91803 5.97718V7.47718L7.37139 4.54734L6.91803 5.97718ZM5.69911 5.97718L4.26544 5.53606L3.66817 7.47718H5.69911V5.97718ZM21.3067 18.849V17.349H19.8067V18.849H21.3067ZM23.1377 18.551L21.7074 18.099L21.7048 18.1075L23.1377 18.551ZM22.5797 18.8381L23.0541 17.4151L23.0389 17.4101L23.0237 17.4053L22.5797 18.8381ZM22.1951 18.7189H20.6951V19.8245L21.7511 20.1517L22.1951 18.7189ZM22.1951 10.8041L22.6475 9.37395L20.6951 8.75631V10.8041H22.1951ZM25.2776 11.7792L26.7079 12.2312L27.1597 10.8014L25.73 10.3491L25.2776 11.7792ZM25.5431 10.9287L25.0917 12.3592L26.5212 12.8102L26.9732 11.3811L25.5431 10.9287ZM22.1951 9.8723H20.6951V10.9719L21.7437 11.3028L22.1951 9.8723ZM22.1951 8.00871L22.646 6.5781L20.6951 5.96316V8.00871H22.1951ZM26.0794 9.23305L27.5096 9.6854L27.9624 8.25381L26.5303 7.80243L26.0794 9.23305ZM26.6157 7.54282L28.0468 7.99232L28.0526 7.97368L28.058 7.9549L26.6157 7.54282ZM26.3503 8.38793L25.8994 9.81856L27.3314 10.2699L27.7813 8.83743L26.3503 8.38793ZM22.1734 7.0715L20.6978 7.34096L20.8602 8.23035L21.7225 8.50213L22.1734 7.0715ZM18.7063 5.97718L18.2544 7.4075L18.475 7.47718H18.7063V5.97718ZM6.87469 2.23917L5.44362 1.78967L4.99487 3.21835L6.4228 3.66948L6.87469 2.23917ZM7.14014 1.39405L8.57122 1.84356L8.57307 1.83758L7.14014 1.39405ZM7.69813 1.10693L7.23373 2.5333L7.24669 2.53739L7.69813 1.10693ZM26.3232 6.98482L25.8717 8.41528L25.9079 8.42668L25.9445 8.43625L26.3232 6.98482ZM27.0459 4.70937L8.42082 -1.17394L7.51718 1.68673L26.1422 7.57004L27.0459 4.70937ZM8.44334 -1.16663C8.32396 -1.20642 7.72196 -1.41084 6.98719 -1.26829C6.12551 -1.10113 5.33677 -0.51118 4.9069 0.568178L7.69399 1.67819C7.74216 1.55723 7.76798 1.55999 7.72115 1.59955C7.70015 1.61728 7.67275 1.6352 7.64081 1.64991C7.60965 1.66427 7.58111 1.67242 7.55854 1.6768C7.53666 1.68104 7.521 1.68165 7.51304 1.68164C7.5052 1.68163 7.50131 1.68101 7.50101 1.68097C7.5005 1.68089 7.49985 1.68079 7.49801 1.68031C7.49471 1.67944 7.49053 1.67804 7.49466 1.67942L8.44334 -1.16663ZM4.87024 0.67095L3.33711 5.51953L6.19752 6.424L7.73065 1.57541L4.87024 0.67095ZM4.76732 4.47177H1.33268V7.47177H4.76732V4.47177ZM1.32165 4.47181C-0.228838 4.48321 -1.5 5.73864 -1.5 7.30445H1.5C1.5 7.40756 1.42067 7.47116 1.34371 7.47173L1.32165 4.47181ZM-1.5 7.30445V18.849H1.5V7.30445H-1.5ZM-1.5 18.849C-1.5 20.4142 -0.232515 21.6816 1.33268 21.6816V18.6816C1.42434 18.6816 1.5 18.7573 1.5 18.849H-1.5ZM1.33268 21.6816H20.8678V18.6816H1.33268V21.6816ZM20.8678 21.6816C21.8631 21.6816 22.73 21.1684 23.2322 20.4037L20.7246 18.7569C20.7371 18.7379 20.7558 18.7192 20.782 18.7047C20.8101 18.6892 20.8414 18.6816 20.8678 18.6816V21.6816ZM21.9784 19.5803C21.5749 21.025 21.575 21.025 21.575 21.025C21.575 21.0251 21.5751 21.0251 21.5751 21.0251C21.5752 21.0251 21.5753 21.0251 21.5754 21.0251C21.5756 21.0252 21.5758 21.0253 21.576 21.0253C21.5765 21.0255 21.5772 21.0257 21.578 21.0259C21.5796 21.0263 21.5818 21.0269 21.5845 21.0277C21.5899 21.0292 21.5975 21.0313 21.607 21.0339C21.6259 21.0391 21.6525 21.0463 21.6846 21.055C21.7483 21.0721 21.8364 21.0954 21.9308 21.1191C22.0228 21.1422 22.1326 21.1687 22.2364 21.1904C22.2845 21.2004 22.5001 21.2482 22.7152 21.2482V18.2482C22.7771 18.2482 22.8226 18.2526 22.8395 18.2544C22.8601 18.2565 22.8733 18.2586 22.8761 18.259C22.881 18.2598 22.8734 18.2587 22.8494 18.2537C22.8024 18.2438 22.7365 18.2283 22.6612 18.2094C22.5884 18.1911 22.5176 18.1724 22.4644 18.1581C22.438 18.151 22.4166 18.1452 22.4021 18.1412C22.3948 18.1392 22.3893 18.1377 22.3859 18.1367C22.3842 18.1362 22.3829 18.1359 22.3823 18.1357C22.3819 18.1356 22.3817 18.1355 22.3817 18.1355C22.3816 18.1355 22.3816 18.1355 22.3817 18.1355C22.3817 18.1355 22.3817 18.1355 22.3818 18.1356C22.3818 18.1356 22.3818 18.1356 22.3818 18.1356C22.3819 18.1356 22.3819 18.1356 21.9784 19.5803ZM22.7152 21.2482C23.9545 21.2482 25.0462 20.4495 25.4153 19.2615L22.5504 18.3714C22.5602 18.3399 22.5826 18.3068 22.6152 18.2828C22.6478 18.2589 22.6847 18.2482 22.7152 18.2482V21.2482ZM25.4132 19.2684L28.8911 8.26017L26.0305 7.35637L22.5525 18.3646L25.4132 19.2684ZM28.8884 8.26877C29.0179 7.86721 29.099 7.21058 28.9025 6.53477C28.6743 5.7502 28.0711 4.98268 26.9824 4.69085L26.2057 7.58856C26.2214 7.59279 26.2137 7.59259 26.1914 7.57982C26.1685 7.5667 26.1398 7.54573 26.111 7.51603C26.0511 7.45421 26.0282 7.39443 26.0219 7.37257C26.0172 7.35639 26.021 7.36186 26.0201 7.38633C26.0197 7.39607 26.0187 7.40198 26.0188 7.40154C26.0189 7.40101 26.0196 7.39701 26.0214 7.38939C26.0231 7.38219 26.0267 7.36806 26.0333 7.34777L28.8884 8.26877ZM6.15782 4.51475L15.3078 7.40223L16.2106 4.5413L7.06065 1.65382L6.15782 4.51475ZM15.7592 4.47177H9.85968V7.47177H15.7592V4.47177ZM10.3119 4.54155L6.5251 3.3443L5.62072 6.20474L9.40749 7.40199L10.3119 4.54155ZM7.50266 5.22819L8.03898 3.53796L5.17948 2.63062L4.64316 4.32085L7.50266 5.22819ZM5.35409 7.0549L6.46466 7.40703L7.37139 4.54734L6.26082 4.19521L5.35409 7.0549ZM6.91803 4.47718H5.69911V7.47718H6.91803V4.47718ZM7.13278 6.41831L7.24113 6.06618L4.37379 5.18392L4.26544 5.53606L7.13278 6.41831ZM21.3121 17.349H21.3067V20.349H21.3121V17.349ZM19.8067 18.849C19.8067 18.2643 20.2778 17.7932 20.8624 17.7932V20.7932C21.9346 20.7932 22.8067 19.9212 22.8067 18.849H19.8067ZM20.8624 17.7932H1.33268V20.7932H20.8624V17.7932ZM1.33268 17.7932C1.91732 17.7932 2.38845 18.2643 2.38845 18.849H-0.611546C-0.611546 19.9212 0.260474 20.7932 1.33268 20.7932V17.7932ZM2.38845 18.849V7.30445H-0.611546V18.849H2.38845ZM2.38845 7.30445C2.38845 7.88909 1.91732 8.36022 1.33268 8.36022V5.36022C0.260472 5.36022 -0.611546 6.23224 -0.611546 7.30445H2.38845ZM1.33268 8.36022H20.8678V5.36022H1.33268V8.36022ZM20.8678 8.36022C20.2832 8.36022 19.8121 7.88909 19.8121 7.30445H22.8121C22.8121 6.23224 21.9401 5.36022 20.8678 5.36022V8.36022ZM19.8121 7.30445V18.849H22.8121V7.30445H19.8121ZM21.7048 18.1075C21.8002 17.7991 22.011 17.5884 22.2292 17.4756C22.4483 17.3625 22.745 17.3121 23.0541 17.4151L22.1054 20.2611C23.1373 20.6051 24.2535 20.0191 24.5707 18.9945L21.7048 18.1075ZM23.0237 17.4053L22.6391 17.2861L21.7511 20.1517L22.1358 20.2709L23.0237 17.4053ZM23.6951 18.7189V10.8041H20.6951V18.7189H23.6951ZM21.7427 12.2342L24.8252 13.2094L25.73 10.3491L22.6475 9.37395L21.7427 12.2342ZM23.8473 11.3273L21.7074 18.099L24.568 19.003L26.7079 12.2312L23.8473 11.3273ZM25.9944 9.49822L22.6465 8.44182L21.7437 11.3028L25.0917 12.3592L25.9944 9.49822ZM23.6951 9.8723V8.00871H20.6951V9.8723H23.6951ZM21.7442 9.43933L25.6285 10.6637L26.5303 7.80243L22.646 6.5781L21.7442 9.43933ZM24.6492 8.7807L24.1129 10.4763L26.9732 11.3811L27.5096 9.6854L24.6492 8.7807ZM25.1846 7.09332L24.9192 7.93843L27.7813 8.83743L28.0468 7.99232L25.1846 7.09332ZM26.8012 6.95731L22.6243 5.64087L21.7225 8.50213L25.8994 9.81856L26.8012 6.95731ZM23.649 6.80204C23.4089 5.48681 22.2631 4.47718 20.8678 4.47718V7.47718C20.7728 7.47718 20.7105 7.41018 20.6978 7.34096L23.649 6.80204ZM20.8678 4.47718H18.7063V7.47718H20.8678V4.47718ZM19.1582 4.54687L7.32657 0.808855L6.4228 3.66948L18.2544 7.4075L19.1582 4.54687ZM8.30575 2.68867L8.57121 1.84355L5.70907 0.944552L5.44362 1.78967L8.30575 2.68867ZM8.57307 1.83758C8.39735 2.40529 7.80096 2.71791 7.23375 2.53324L8.16251 -0.319377C7.1294 -0.655738 6.02378 -0.0722426 5.70721 0.950528L8.57307 1.83758ZM7.24669 2.53739L25.8717 8.41528L26.7746 5.55437L8.14957 -0.323526L7.24669 2.53739ZM25.9445 8.43625C25.8131 8.40195 25.6312 8.3203 25.4649 8.15215C25.3006 7.98611 25.2142 7.79934 25.1735 7.64799C25.1049 7.39346 25.1516 7.20717 25.1734 7.13073L28.058 7.9549C28.1123 7.7647 28.1997 7.34817 28.0701 6.86745C27.9052 6.25524 27.4307 5.72354 26.7018 5.5334L25.9445 8.43625Z" fill="#CDCDCD" mask="url(#path-15-inside-8)"/>
</svg>
