<svg width="94" height="94" viewBox="0 0 94 94" fill="none" xmlns="http://www.w3.org/2000/svg">
<path d="M52.8265 94H12.0014C8.95446 94 6.48291 91.5285 6.48291 88.4816V5.51845C6.48291 2.47155 8.95446 0 12.0014 0H52.8249C55.8734 0 58.345 2.47155 58.345 5.51845V88.4799C58.345 91.5285 55.8734 94 52.8265 94Z" fill="#2D9CDB"/>
<path d="M58.345 9.72461H6.48291V74.5522H58.345V9.72461Z" fill="#E7ECED"/>
<path d="M32.4138 89.1382C35.0991 89.1382 37.2759 86.9614 37.2759 84.2761C37.2759 81.5909 35.0991 79.4141 32.4138 79.4141C29.7286 79.4141 27.5518 81.5909 27.5518 84.2761C27.5518 86.9614 29.7286 89.1382 32.4138 89.1382Z" fill="white"/>
<path d="M32.414 6.48259H25.9312C25.035 6.48259 24.3105 5.75814 24.3105 4.8619C24.3105 3.96566 25.035 3.24121 25.9312 3.24121H32.414C33.3102 3.24121 34.0347 3.96566 34.0347 4.8619C34.0347 5.75814 33.3102 6.48259 32.414 6.48259Z" fill="white"/>
<path d="M38.8967 6.48259H37.276C36.3797 6.48259 35.6553 5.75814 35.6553 4.8619C35.6553 3.96566 36.3797 3.24121 37.276 3.24121H38.8967C39.7929 3.24121 40.5173 3.96566 40.5173 4.8619C40.5173 5.75814 39.7929 6.48259 38.8967 6.48259Z" fill="white"/>
<path d="M87.5172 19.4482H29.1724V50.2413H35.6551V59.9655L48.6206 50.2413H87.5172V19.4482Z" fill="#082545"/>
<path d="M38.8966 32.4142H55.1035C55.9981 32.4142 56.7242 31.6898 56.7242 30.7935C56.7242 29.8973 55.9981 29.1729 55.1035 29.1729H38.8966C38.0019 29.1729 37.2759 29.8973 37.2759 30.7935C37.2759 31.6898 38.0019 32.4142 38.8966 32.4142Z" fill="white"/>
<path d="M77.7931 37.2764H38.8966C38.0019 37.2764 37.2759 38.0008 37.2759 38.8971C37.2759 39.7933 38.0019 40.5177 38.8966 40.5177H77.7931C78.6877 40.5177 79.4138 39.7933 79.4138 38.8971C79.4138 38.0008 78.6877 37.2764 77.7931 37.2764Z" fill="white"/>
</svg>
