<svg width="20" height="14" viewBox="0 0 20 14" fill="none" xmlns="http://www.w3.org/2000/svg">
<path fill-rule="evenodd" clip-rule="evenodd" d="M9.99974 8.54255C9.24166 8.54255 8.62474 7.92563 8.62474 7.16755C8.62474 6.40947 9.24166 5.79255 9.99974 5.79255C10.7578 5.79255 11.3747 6.40947 11.3747 7.16755C11.3747 7.92563 10.7578 8.54255 9.99974 8.54255ZM9.99971 3.95927C8.23054 3.95927 6.79138 5.39844 6.79138 7.16761C6.79138 8.93677 8.23054 10.3759 9.99971 10.3759C11.7689 10.3759 13.208 8.93677 13.208 7.16761C13.208 5.39844 11.7689 3.95927 9.99971 3.95927ZM10.2011 11.7488C6.25395 11.8404 3.67903 8.46434 2.8247 7.16359C3.7652 5.69234 6.13387 2.68018 9.7987 2.58668C13.7303 2.48676 16.3199 5.87109 17.1742 7.17184C16.2346 8.64309 13.865 11.6553 10.2011 11.7488ZM19.0451 6.71163C18.4603 5.6923 15.2299 0.582797 9.75195 0.754214C4.68461 0.882547 1.73753 5.34671 0.954695 6.71163C0.792445 6.99396 0.792445 7.34138 0.954695 7.62371C1.53128 8.6293 4.64795 13.5839 10.0224 13.5839C10.0975 13.5839 10.1727 13.583 10.2479 13.5811C15.3143 13.4519 18.2623 8.98863 19.0451 7.62371C19.2064 7.34138 19.2064 6.99396 19.0451 6.71163Z" fill="#AFB1B7"/>
</svg>
