<svg id="_1" data-name="1" xmlns="http://www.w3.org/2000/svg" width="53.01" height="72.05" viewBox="0 0 53.01 72.05">
  <path id="Path_22" data-name="Path 22" d="M101.23,161.91H63.78c-4.3-.006-7.776-4.737-7.78-10.575V125.347c0-5.838,3.485-10.569,7.78-10.575H76.948c2.112,0,3.824-2.327,3.824-5.2h0c0-5.838,3.485-10.569,7.78-10.575H101.23c4.3.006,7.776,4.737,7.78,10.575v41.76C109.005,157.172,105.525,161.9,101.23,161.91Zm-37.45-41.76c-2.112,0-3.824,2.327-3.824,5.2v25.988c0,2.871,1.712,5.2,3.824,5.2h37.45c2.112,0,3.824-2.327,3.824-5.2v-41.76c0-2.871-1.712-5.2-3.824-5.2H88.553c-2.112,0-3.824,2.327-3.824,5.2-.005,5.837-3.485,10.568-7.78,10.575Z" transform="translate(-56 -89.859)" fill="#fff"/>
  <path id="Path_23" data-name="Path 23" d="M107.978,78.29c-1.092,0-1.978-1.2-1.978-2.688V50.688c0-1.485.886-2.688,1.978-2.688h35.868c1.092,0,1.978,1.2,1.978,2.688v9.141c0,1.485-.886,2.688-1.978,2.688s-1.978-1.2-1.978-2.688V53.377H109.956V75.6C109.956,77.086,109.07,78.29,107.978,78.29Z" transform="translate(-99.407 -48)" fill="#fff"/>
</svg>
