<svg id="_1" data-name="1" xmlns="http://www.w3.org/2000/svg" width="101.732" height="109" viewBox="0 0 101.732 109">
  <path id="Path_13" data-name="Path 13" d="M78.248,137.248A4.063,4.063,0,0,1,74.613,135a50.854,50.854,0,0,1,81.419-58.747A4.063,4.063,0,1,1,150.285,82a42.725,42.725,0,0,0-68.4,49.357,4.063,4.063,0,0,1-3.63,5.887Z" transform="translate(-69.204 -57.76)" fill="#fff"/>
  <path id="Path_14" data-name="Path 14" d="M157.028,232.44a50.685,50.685,0,0,1-35.954-14.867,4.064,4.064,0,0,1,5.746-5.748,42.725,42.725,0,0,0,68.4-49.358,4.064,4.064,0,1,1,7.266-3.644,50.826,50.826,0,0,1-45.462,73.617Z" transform="translate(-106.155 -127.067)" fill="#fff"/>
  <path id="Path_15" data-name="Path 15" d="M304.328,75.156a4.063,4.063,0,0,1-.4-8.105l12.849-1.281L314.2,52.855a4.063,4.063,0,1,1,7.97-1.588l3.451,17.319a4.063,4.063,0,0,1-3.581,4.838L304.737,75.15C304.6,75.15,304.464,75.156,304.328,75.156Z" transform="translate(-237.685 -47.997)" fill="#fff"/>
  <path id="Path_16" data-name="Path 16" d="M127.392,376.9a4.063,4.063,0,0,1-3.982-3.27l-3.451-17.305a4.063,4.063,0,0,1,3.584-4.838l17.305-1.726a4.063,4.063,0,1,1,.813,8.086l-12.849,1.281,2.574,12.914a4.063,4.063,0,0,1-3.993,4.857Z" transform="translate(-106.152 -267.903)" fill="#fff"/>
</svg>
