<svg id="_1" data-name="1" xmlns="http://www.w3.org/2000/svg" width="71.329" height="71.329" viewBox="0 0 71.329 71.329">
  <path id="Path_11" data-name="Path 11" d="M127.4,107.892a2.661,2.661,0,0,1-1.977-.887l-24.9-27.611a2.662,2.662,0,0,1,1.977-4.436h9.97v-24.3A2.662,2.662,0,0,1,115.136,48h24.539a2.662,2.662,0,0,1,2.662,2.662V74.951H152.3a2.662,2.662,0,0,1,1.977,4.436l-24.9,27.625A2.661,2.661,0,0,1,127.4,107.892ZM108.488,80.274,127.4,101.256l18.916-20.982h-6.643a2.662,2.662,0,0,1-2.662-2.662V53.323H117.8V77.612a2.662,2.662,0,0,1-2.662,2.662Z" transform="translate(-91.738 -48)" fill="#fff"/>
  <path id="Path_12" data-name="Path 12" d="M113.874,352.559H65.717A11.6,11.6,0,0,1,54.13,340.974V334.2a2.662,2.662,0,1,1,5.323,0v6.773a6.271,6.271,0,0,0,6.263,6.262h48.158a6.269,6.269,0,0,0,6.262-6.262V334.2a2.662,2.662,0,1,1,5.323,0v6.773A11.6,11.6,0,0,1,113.874,352.559Z" transform="translate(-54.13 -281.23)" fill="#fff"/>
</svg>
