<svg xmlns="http://www.w3.org/2000/svg" width="221.967" height="57.46" viewBox="0 0 221.967 57.46">
  <g id="logo" transform="translate(-141.033 -30)">
    <path id="Path_33" data-name="Path 33" d="M18.546-4.356V0H1.089V-3.465L10-11.88a9.462,9.462,0,0,0,1.914-2.327,4.232,4.232,0,0,0,.495-1.931,2.552,2.552,0,0,0-.941-2.128,4.376,4.376,0,0,0-2.756-.743,6.328,6.328,0,0,0-2.739.577A5.245,5.245,0,0,0,3.927-16.7L.033-19.206a9.135,9.135,0,0,1,3.729-3.151A12.454,12.454,0,0,1,9.207-23.5a11.2,11.2,0,0,1,4.5.841,6.943,6.943,0,0,1,3,2.376,6.148,6.148,0,0,1,1.073,3.614A8.055,8.055,0,0,1,17-13.134a13.593,13.593,0,0,1-3.069,3.762L8.613-4.356ZM31.812-14.487a9.012,9.012,0,0,1,4.026.891,7.034,7.034,0,0,1,2.871,2.525,6.8,6.8,0,0,1,1.056,3.778A7.2,7.2,0,0,1,38.61-3.234a7.535,7.535,0,0,1-3.152,2.69A10.286,10.286,0,0,1,31.02.4a9.812,9.812,0,0,1-7.59-2.97q-2.739-2.97-2.739-8.481a14.214,14.214,0,0,1,1.485-6.732,10.112,10.112,0,0,1,4.142-4.257A12.629,12.629,0,0,1,32.472-23.5a14.99,14.99,0,0,1,3.548.413,9.493,9.493,0,0,1,2.887,1.171l-1.98,3.927A7.579,7.579,0,0,0,32.6-19.14a6.287,6.287,0,0,0-4.653,1.716A7.182,7.182,0,0,0,26.1-12.441,7.717,7.717,0,0,1,31.812-14.487ZM30.723-3.6a4.121,4.121,0,0,0,2.788-.924,3.139,3.139,0,0,0,1.073-2.508,3.189,3.189,0,0,0-1.073-2.525,4.174,4.174,0,0,0-2.854-.94,4.223,4.223,0,0,0-2.871.974,3.15,3.15,0,0,0-1.122,2.491,3.142,3.142,0,0,0,1.089,2.475A4.342,4.342,0,0,0,30.723-3.6ZM49.962-18.018A9.24,9.24,0,0,1,56.3-16.055q2.211,1.964,2.211,5.924V0H53.691V-2.211Q52.239.264,48.279.264a8.4,8.4,0,0,1-3.548-.693,5.29,5.29,0,0,1-2.293-1.914,4.982,4.982,0,0,1-.792-2.772A4.626,4.626,0,0,1,43.51-9.009q1.865-1.419,5.758-1.419h4.092a3.281,3.281,0,0,0-1.023-2.59,4.506,4.506,0,0,0-3.069-.908,8.961,8.961,0,0,0-2.788.446,7.377,7.377,0,0,0-2.326,1.2l-1.848-3.6a11.15,11.15,0,0,1,3.481-1.584A15.6,15.6,0,0,1,49.962-18.018ZM49.566-3.2a4.483,4.483,0,0,0,2.343-.61,3.341,3.341,0,0,0,1.452-1.8V-7.425H49.83q-3.168,0-3.168,2.079a1.851,1.851,0,0,0,.776,1.567A3.493,3.493,0,0,0,49.566-3.2ZM73.953-18.018a7.306,7.306,0,0,1,5.329,1.98q2.029,1.98,2.029,5.874V0H76.164V-9.372a4.628,4.628,0,0,0-.924-3.152,3.389,3.389,0,0,0-2.673-1.039,4.1,4.1,0,0,0-3.1,1.2A4.987,4.987,0,0,0,68.31-8.778V0H63.162V-17.754h4.917v2.079a6.827,6.827,0,0,1,2.541-1.733A8.853,8.853,0,0,1,73.953-18.018Zm30.294-6.468V0H99.33V-2.046A6.789,6.789,0,0,1,93.786.264,9.219,9.219,0,0,1,89.249-.858a8.034,8.034,0,0,1-3.185-3.2,9.758,9.758,0,0,1-1.155-4.818A9.757,9.757,0,0,1,86.064-13.7a8.034,8.034,0,0,1,3.185-3.2,9.219,9.219,0,0,1,4.537-1.122A6.753,6.753,0,0,1,99.1-15.873v-8.613ZM94.677-3.96A4.3,4.3,0,0,0,97.911-5.3,4.944,4.944,0,0,0,99.2-8.877a4.944,4.944,0,0,0-1.287-3.58,4.3,4.3,0,0,0-3.234-1.337,4.341,4.341,0,0,0-3.267,1.337,4.944,4.944,0,0,0-1.287,3.58A4.944,4.944,0,0,0,91.41-5.3,4.341,4.341,0,0,0,94.677-3.96Zm19.965-13.4H119.2v3.96h-4.422V0h-5.148V-13.4h-2.739v-3.96h2.739v-.792a6.477,6.477,0,0,1,1.8-4.818,6.887,6.887,0,0,1,5.066-1.782,9.448,9.448,0,0,1,2.194.248,5.333,5.333,0,0,1,1.732.709l-1.353,3.729a3.521,3.521,0,0,0-2.079-.627q-2.343,0-2.343,2.574ZM129.987.264a10.646,10.646,0,0,1-5.033-1.172,8.709,8.709,0,0,1-3.481-3.25,8.956,8.956,0,0,1-1.254-4.719,8.956,8.956,0,0,1,1.254-4.719,8.709,8.709,0,0,1,3.481-3.25,10.646,10.646,0,0,1,5.033-1.171A10.548,10.548,0,0,1,135-16.847a8.736,8.736,0,0,1,3.465,3.25,8.956,8.956,0,0,1,1.254,4.719,8.956,8.956,0,0,1-1.254,4.719A8.736,8.736,0,0,1,135-.908,10.548,10.548,0,0,1,129.987.264Zm0-4.224A4.288,4.288,0,0,0,133.238-5.3a4.982,4.982,0,0,0,1.27-3.581,4.982,4.982,0,0,0-1.27-3.58,4.288,4.288,0,0,0-3.251-1.337,4.341,4.341,0,0,0-3.267,1.337,4.944,4.944,0,0,0-1.287,3.58A4.944,4.944,0,0,0,126.72-5.3,4.341,4.341,0,0,0,129.987-3.96ZM161.04-17.754V0h-4.884V-2.112a6.828,6.828,0,0,1-2.442,1.765,7.682,7.682,0,0,1-3.069.611A7.561,7.561,0,0,1,145.1-1.749q-2.046-2.013-2.046-5.973V-17.754H148.2v9.273q0,4.29,3.6,4.29a3.867,3.867,0,0,0,2.97-1.2,5.081,5.081,0,0,0,1.122-3.581v-8.778Zm9.7,2.343a5.725,5.725,0,0,1,2.492-1.947,9.247,9.247,0,0,1,3.613-.66v4.752q-.858-.066-1.155-.066a4.719,4.719,0,0,0-3.465,1.238,5,5,0,0,0-1.254,3.713V0h-5.148V-17.754h4.917Z" transform="translate(141 87.065)" fill="#fff"/>
    <rect id="Rectangle_1" data-name="Rectangle 1" width="14.66" height="37.945" rx="7.33" transform="translate(347.828 30) rotate(49)" fill="#3eb8ff"/>
    <rect id="Rectangle_2" data-name="Rectangle 2" width="14.66" height="37.945" rx="7.33" transform="translate(353.382 48.985) rotate(49)" fill="#3fe14f"/>
  </g>
</svg>
